#!OML:ASF F:\VICON\USERDATA\INSTALL\rory3\rory3.ASF
:FULLY-SPECIFIED
:DEGREES
685
root 0.522631 16.4136 10.2054 -514.705 -8.01711 -184.631
lowerback -7.65832 0.498187 -6.81742
upperback -12.3951 -1.64301 -4.62604
thorax -9.01609 -1.38609 -0.997746
lowerneck -14.7561 -2.80601 -5.33746
upperneck 32.7414 -9.5059 10.6354
head 14.5556 -4.50259 3.39254
rclavicle 8.74653e-015 1.27222e-014
rhumerus 355.357 -5.71379 -384.287
rradius 31.2453
rwrist -9.60359
rhand -11.7806 16.482
rfingers 7.12502
rthumb 14.2685 -13.0078
lclavicle 8.74653e-015 1.27222e-014
lhumerus 4.10176 15.3425 19.711
lradius 18.044
lwrist -50.5532
lhand -10.6643 25.3534
lfingers 7.12502
lthumb 15.3438 54.7641
rfemur -42.9304 1.64938 31.2905
rtibia 43.2282
rfoot -33.9935 -29.4634
rtoes 35.8011
lfemur -15.9669 -13.6406 5.0605
ltibia 26.7925
lfoot -71.5423 -2.70417
ltoes 49.7788
686
root 0.420839 16.299 10.306 -515.711 -7.23876 -182.883
lowerback -6.49206 0.310865 -3.54952
upperback -12.1123 -1.76577 -4.06861
thorax -9.31606 -1.61334 -2.19666
lowerneck -15.5317 -2.235 -5.33763
upperneck 32.8904 -8.57236 10.5778
head 14.686 -4.06894 3.53118
rclavicle 8.54774e-015 -6.52014e-014
rhumerus 354.896 -5.95889 -385.137
rradius 30.0981
rwrist -8.7929
rhand -11.8192 16.8132
rfingers 7.12502
rthumb 14.2313 -12.6792
lclavicle 8.54774e-015 -6.52014e-014
lhumerus 3.02763 16.7224 21.1891
lradius 17.8267
lwrist -51.5579
lhand -10.9945 24.5187
lfingers 7.12502
lthumb 15.0258 53.9535
rfemur -43.7843 1.76961 32.8046
rtibia 45.9918
rfoot -34.1456 -28.6254
rtoes 35.5789
lfemur -16.7329 -10.0028 6.4486
ltibia 28.3443
lfoot -69.3171 3.17565
ltoes 49.5172
687
root 0.36142 16.1631 10.3915 -516.336 -5.27689 -182.226
lowerback -5.73797 0.238995 -2.65717
upperback -11.959 -1.81163 -3.78604
thorax -9.57243 -1.66756 -2.37794
lowerneck -15.8943 -1.67685 -5.01324
upperneck 33.0086 -7.7289 10.3012
head 14.6932 -3.69113 3.50636
rclavicle -8.34896e-015 1.11319e-014
rhumerus 354.096 -6.57047 -385.936
rradius 28.6346
rwrist -7.41235
rhand -11.3347 16.9492
rfingers 7.12502
rthumb 14.698 -12.5098
lclavicle -8.34896e-015 1.11319e-014
lhumerus 1.9132 10.9093 22.1375
lradius 19.3064
lwrist -42.9714
lhand -7.60158 30.9025
lfingers 7.12502
lthumb 18.2922 60.0624
rfemur -44.6226 3.82849 32.6371
rtibia 48.3888
rfoot -34.5573 -28.6635
rtoes 35.4364
lfemur -17.3978 -6.98698 6.45726
ltibia 29.8681
lfoot -67.9287 9.10042
ltoes 48.7275
688
root 0.280161 16.0537 10.4681 -516.983 -3.65869 -180.688
lowerback -4.91227 0.257746 -0.300798
upperback -11.8445 -1.68699 -3.47676
thorax -9.9417 -1.76615 -3.35688
lowerneck -16.2414 -1.15426 -4.7077
upperneck 33.2794 -7.06135 10.1461
head 14.8023 -3.39519 3.50636
rclavicle -9.93923e-016 5.88403e-014
rhumerus 352.945 -6.24795 -386.72
rradius 27.6437
rwrist -7.02679
rhand -10.8735 15.406
rfingers 7.12502
rthumb 15.1423 -14.02
lclavicle -9.93923e-016 5.88403e-014
lhumerus 0.889706 13.9459 23.077
lradius 18.1272
lwrist -48.0854
lhand -9.03554 25.3617
lfingers 7.12502
lthumb 16.9122 54.6453
rfemur -44.8028 5.16873 33.6654
rtibia 50.0285
rfoot -34.364 -28.5994
rtoes 33.9576
lfemur -17.9507 -3.19311 7.36156
ltibia 31.1669
lfoot -65.7146 14.7892
ltoes 47.6892
689
root 0.218261 15.9575 10.4997 -517.388 -0.767381 -179.713
lowerback -5.07698 0.489104 0.641373
upperback -11.4154 -1.2375 -3.21086
thorax -9.32581 -1.56483 -3.62544
lowerneck -16.9473 -3.93292 -3.4494
upperneck 34.0973 -4.98083 8.40471
head 15.0604 -0.337774 3.52877
rclavicle -7.95139e-016 2.78299e-014
rhumerus 352.428 -7.32893 -387.379
rradius 26.1425
rwrist -5.16111
rhand -10.1106 13.4181
rfingers 7.12502
rthumb 15.8771 -15.951
lclavicle -7.95139e-016 2.78299e-014
lhumerus 0.0607167 12.2469 24.0267
lradius 18.2099
lwrist -45.9362
lhand -7.96436 25.5277
lfingers 7.12502
lthumb 17.9431 54.72
rfemur -44.8631 7.04952 33.8462
rtibia 51.2825
rfoot -33.88 -28.1842
rtoes 32.8039
lfemur -17.807 0.50765 7.18631
ltibia 32.0628
lfoot -64.0188 19.3287
ltoes 46.7667
690
root 0.160258 15.9041 10.5355 -517.721 1.39805 -179.219
lowerback -4.89395 -1.52954 1.59174
upperback -11.2865 -0.696311 -2.73652
thorax -9.27522 0.0300554 -3.89061
lowerneck -17.1397 -3.22442 -3.03505
upperneck 33.915 -4.0292 8.04276
head 14.9104 0.0184141 3.44347
rclavicle 1.02871e-014 2.38542e-015
rhumerus 351.797 -9.63952 -387.65
rradius 24.2718
rwrist -1.43682
rhand -7.71195 12.4405
rfingers 7.12502
rthumb 18.186 -16.7293
lclavicle 1.02871e-014 2.38542e-015
lhumerus -0.632485 10.598 25.072
lradius 18.3188
lwrist -43.8674
lhand -6.42348 26.0322
lfingers 7.12502
lthumb 19.4252 55.0819
rfemur -44.8849 7.59797 33.8589
rtibia 52.0096
rfoot -33.2889 -27.0693
rtoes 32.2397
lfemur -18.1969 3.74055 6.76248
ltibia 32.7364
lfoot -61.8074 23.353
ltoes 45.7942
691
root 0.107878 15.8799 10.5642 -518.287 2.96668 -178.611
lowerback -4.45651 -1.5083 2.59794
upperback -11.014 -0.770742 -2.52758
thorax -9.2592 -0.136581 -4.21616
lowerneck -17.1264 -2.6749 -2.87022
upperneck 33.6941 -3.2636 7.81624
head 14.73 0.288082 3.42623
rclavicle -9.69075e-015 5.725e-014
rhumerus 350.951 -11.8674 -387.368
rradius 22.5279
rwrist 2.0349
rhand -4.55142 11.917
rfingers 7.12502
rthumb 21.2244 -16.941
lclavicle -9.69075e-015 5.725e-014
lhumerus -1.02681 9.32944 26.3048
lradius 18.4105
lwrist -42.2345
lhand -4.82065 27.0948
lfingers 7.12502
lthumb 20.9657 55.9816
rfemur -44.3934 7.38125 34.3002
rtibia 52.3076
rfoot -32.6011 -25.8587
rtoes 31.4522
lfemur -18.5747 6.58144 6.63535
ltibia 33.2151
lfoot -59.2732 25.9725
ltoes 44.9608
692
root 0.0614795 15.8705 10.5889 -518.855 4.07923 -177.942
lowerback -4.04588 -1.59668 3.83715
upperback -10.7426 -0.966458 -2.32577
thorax -9.25949 -0.375062 -4.67771
lowerneck -16.6712 -2.28194 -2.96916
upperneck 33.1962 -2.68489 7.69679
head 14.3488 0.44854 3.4465
rclavicle -3.926e-015 5.56597e-015
rhumerus 350.284 -14.8423 -386.897
rradius 20.5008
rwrist 5.76477
rhand -2.16112 10.7285
rfingers 7.12502
rthumb 23.5189 -17.8537
lclavicle -3.926e-015 5.56597e-015
lhumerus -0.991716 8.83382 27.6499
lradius 18.2422
lwrist -41.3116
lhand -3.11003 29.0079
lfingers 7.12502
lthumb 22.6084 57.7039
rfemur -43.5916 7.04705 34.9307
rtibia 52.2214
rfoot -32.2045 -24.7868
rtoes 31.1363
lfemur -19.3616 8.98566 6.68411
ltibia 33.8661
lfoot -56.3004 28.8384
ltoes 43.7516
693
root 0.0201969 15.8664 10.6055 -519.278 5.09366 -177.23
lowerback -3.81713 -1.66545 5.02708
upperback -10.5007 -1.1097 -2.10321
thorax -9.18839 -0.568068 -5.09353
lowerneck -16.0388 -2.05372 -3.28358
upperneck 32.4749 -2.32421 7.63466
head 13.8572 0.487797 3.47558
rclavicle -9.49197e-015 4.69132e-014
rhumerus 349.589 -18.5938 -386.001
rradius 18.3895
rwrist 9.84687
rhand -0.783884 9.03227
rfingers 7.12502
rthumb 24.8393 -19.3742
lclavicle -9.49197e-015 4.69132e-014
lhumerus -0.59675 10.4907 29.1189
lradius 17.5523
lwrist -43.3141
lhand -2.58762 27.9505
lfingers 7.12502
lthumb 23.1097 56.5845
rfemur -42.783 6.94726 35.5464
rtibia 51.9216
rfoot -31.8469 -23.8829
rtoes 31.104
lfemur -20.6128 11.4236 6.702
ltibia 34.9145
lfoot -53.2049 31.4098
ltoes 42.2681
